<?xml version="1.0" encoding="UTF-8" standalone="no"?>
<!-- Created with Inkscape (http://www.inkscape.org/) -->

<svg
   xmlns:osb="http://www.openswatchbook.org/uri/2009/osb"
   xmlns:dc="http://purl.org/dc/elements/1.1/"
   xmlns:cc="http://creativecommons.org/ns#"
   xmlns:rdf="http://www.w3.org/1999/02/22-rdf-syntax-ns#"
   xmlns:svg="http://www.w3.org/2000/svg"
   xmlns="http://www.w3.org/2000/svg"
   xmlns:xlink="http://www.w3.org/1999/xlink"
   xmlns:sodipodi="http://sodipodi.sourceforge.net/DTD/sodipodi-0.dtd"
   xmlns:inkscape="http://www.inkscape.org/namespaces/inkscape"
   width="198.00392mm"
   height="187.47879mm"
   viewBox="0 0 198.00392 187.47879"
   version="1.1"
   id="svg8"
   inkscape:version="0.92.4 (5da689c313, 2019-01-14)"
   sodipodi:docname="murica.svg"
   inkscape:export-filename="C:\Users\Theano\Desktop\webtech\drawing.png"
   inkscape:export-xdpi="960.01465"
   inkscape:export-ydpi="960.01465">
  <defs
     id="defs2">
    <linearGradient
       inkscape:collect="always"
       id="linearGradient9405">
      <stop
         style="stop-color:#0093d2;stop-opacity:1;"
         offset="0"
         id="stop9401" />
      <stop
         style="stop-color:#0093d2;stop-opacity:0;"
         offset="1"
         id="stop9403" />
    </linearGradient>
    <linearGradient
       inkscape:collect="always"
       id="linearGradient9305">
      <stop
         style="stop-color:#bb5800;stop-opacity:1;"
         offset="0"
         id="stop9301" />
      <stop
         style="stop-color:#bb5800;stop-opacity:0;"
         offset="1"
         id="stop9303" />
    </linearGradient>
    <linearGradient
       inkscape:collect="always"
       id="linearGradient9280">
      <stop
         style="stop-color:#ff9700;stop-opacity:1;"
         offset="0"
         id="stop9276" />
      <stop
         style="stop-color:#ff9700;stop-opacity:0;"
         offset="1"
         id="stop9278" />
    </linearGradient>
    <linearGradient
       inkscape:collect="always"
       id="linearGradient9222">
      <stop
         style="stop-color:#ff9400;stop-opacity:1;"
         offset="0"
         id="stop9218" />
      <stop
         style="stop-color:#ff9400;stop-opacity:0;"
         offset="1"
         id="stop9220" />
    </linearGradient>
    <linearGradient
       inkscape:collect="always"
       id="linearGradient9208">
      <stop
         style="stop-color:#ff8d00;stop-opacity:1;"
         offset="0"
         id="stop9204" />
      <stop
         style="stop-color:#ff8d00;stop-opacity:0;"
         offset="1"
         id="stop9206" />
    </linearGradient>
    <linearGradient
       inkscape:collect="always"
       id="linearGradient9140">
      <stop
         style="stop-color:#0d0000;stop-opacity:1;"
         offset="0"
         id="stop9136" />
      <stop
         style="stop-color:#0d0000;stop-opacity:0;"
         offset="1"
         id="stop9138" />
    </linearGradient>
    <linearGradient
       inkscape:collect="always"
       id="linearGradient9058">
      <stop
         style="stop-color:#b83d00;stop-opacity:1;"
         offset="0"
         id="stop9054" />
      <stop
         style="stop-color:#b83d00;stop-opacity:0;"
         offset="1"
         id="stop9056" />
    </linearGradient>
    <linearGradient
       inkscape:collect="always"
       id="linearGradient9027">
      <stop
         style="stop-color:#b53800;stop-opacity:1;"
         offset="0"
         id="stop9023" />
      <stop
         style="stop-color:#b53800;stop-opacity:0;"
         offset="1"
         id="stop9025" />
    </linearGradient>
    <linearGradient
       inkscape:collect="always"
       id="linearGradient7475">
      <stop
         style="stop-color:#f2ab00;stop-opacity:1;"
         offset="0"
         id="stop7471" />
      <stop
         style="stop-color:#f2ab00;stop-opacity:0;"
         offset="1"
         id="stop7473" />
    </linearGradient>
    <linearGradient
       inkscape:collect="always"
       id="linearGradient7467">
      <stop
         style="stop-color:#ffd500;stop-opacity:1;"
         offset="0"
         id="stop7463" />
      <stop
         style="stop-color:#ffd500;stop-opacity:0;"
         offset="1"
         id="stop7465" />
    </linearGradient>
    <inkscape:path-effect
       effect="mirror_symmetry"
       start_point="57.774252,52.053709"
       end_point="57.774252,58.203205"
       center_point="57.774252,55.128457"
       id="path-effect6216"
       is_visible="true"
       mode="free"
       discard_orig_path="false"
       fuse_paths="false"
       oposite_fuse="false" />
    <inkscape:path-effect
       effect="mirror_symmetry"
       start_point="64.905598,59.288409"
       end_point="64.905598,82.026039"
       center_point="64.905598,70.657224"
       id="path-effect6158"
       is_visible="true"
       mode="free"
       discard_orig_path="false"
       fuse_paths="false"
       oposite_fuse="false" />
    <inkscape:path-effect
       effect="mirror_symmetry"
       start_point="42.788085,90.500974"
       end_point="42.788085,130.60189"
       center_point="42.788085,110.55143"
       id="path-effect2447"
       is_visible="true"
       mode="free"
       discard_orig_path="false"
       fuse_paths="false"
       oposite_fuse="false" />
    <inkscape:path-effect
       effect="mirror_symmetry"
       start_point="51.461487,91.695509"
       end_point="54.562073,123.31258"
       center_point="53.01178,107.50404"
       id="path-effect2430"
       is_visible="true"
       mode="free"
       discard_orig_path="false"
       fuse_paths="false"
       oposite_fuse="false" />
    <linearGradient
       id="linearGradient2363"
       osb:paint="solid">
      <stop
         style="stop-color:#9d0000;stop-opacity:1;"
         offset="0"
         id="stop2361" />
    </linearGradient>
    <inkscape:path-effect
       effect="mirror_symmetry"
       start_point="80.18095,125.71116"
       end_point="80.18095,140.04666"
       center_point="80.18095,132.87891"
       id="path-effect2342"
       is_visible="true"
       mode="free"
       discard_orig_path="false"
       fuse_paths="false"
       oposite_fuse="false" />
    <inkscape:path-effect
       effect="mirror_symmetry"
       start_point="43.089284,158.18824"
       end_point="43.089284,176.99256"
       center_point="43.089284,167.5904"
       id="path-effect2299"
       is_visible="true"
       mode="free"
       discard_orig_path="false"
       fuse_paths="true"
       oposite_fuse="false" />
    <inkscape:path-effect
       effect="mirror_symmetry"
       start_point="60.050968,155.54241"
       end_point="60.050968,161.73177"
       center_point="60.050968,158.63709"
       id="path-effect2285"
       is_visible="true"
       mode="free"
       discard_orig_path="false"
       fuse_paths="false"
       oposite_fuse="false" />
    <inkscape:path-effect
       effect="mirror_symmetry"
       start_point="80.157233,150.49045"
       end_point="80.157233,165.85845"
       center_point="80.157233,158.17445"
       id="path-effect833"
       is_visible="true"
       mode="free"
       discard_orig_path="false"
       fuse_paths="false"
       oposite_fuse="false" />
    <inkscape:path-effect
       effect="mirror_symmetry"
       start_point="16.303441,191.96307"
       end_point="16.303441,253.16779"
       center_point="16.303441,222.56543"
       id="path-effect829"
       is_visible="true"
       mode="free"
       discard_orig_path="false"
       fuse_paths="false"
       oposite_fuse="false" />
    <inkscape:path-effect
       effect="mirror_symmetry"
       start_point="64.905598,59.288409"
       end_point="64.905598,82.026039"
       center_point="64.905598,70.657224"
       id="path-effect6158-1"
       is_visible="true"
       mode="free"
       discard_orig_path="false"
       fuse_paths="false"
       oposite_fuse="false" />
    <inkscape:path-effect
       effect="mirror_symmetry"
       start_point="64.905598,59.288409"
       end_point="64.905598,82.026039"
       center_point="64.905598,70.657224"
       id="path-effect6158-3"
       is_visible="true"
       mode="free"
       discard_orig_path="false"
       fuse_paths="false"
       oposite_fuse="false" />
    <inkscape:path-effect
       effect="mirror_symmetry"
       start_point="64.905598,59.288409"
       end_point="64.905598,82.026039"
       center_point="64.905598,70.657224"
       id="path-effect6158-5"
       is_visible="true"
       mode="free"
       discard_orig_path="false"
       fuse_paths="false"
       oposite_fuse="false" />
    <filter
       style="color-interpolation-filters:sRGB"
       inkscape:label="Drop Shadow"
       id="filter7359">
      <feFlood
         flood-opacity="0.498039"
         flood-color="rgb(0,0,0)"
         result="flood"
         id="feFlood7349" />
      <feComposite
         in="flood"
         in2="SourceGraphic"
         operator="in"
         result="composite1"
         id="feComposite7351" />
      <feGaussianBlur
         in="composite1"
         stdDeviation="2.6"
         result="blur"
         id="feGaussianBlur7353" />
      <feOffset
         dx="-6.38378e-16"
         dy="-2.77556e-17"
         result="offset"
         id="feOffset7355" />
      <feComposite
         in="SourceGraphic"
         in2="offset"
         operator="over"
         result="composite2"
         id="feComposite7357" />
    </filter>
    <filter
       style="color-interpolation-filters:sRGB"
       inkscape:label="Drop Shadow"
       id="filter7371">
      <feFlood
         flood-opacity="0.498039"
         flood-color="rgb(0,0,0)"
         result="flood"
         id="feFlood7361" />
      <feComposite
         in="flood"
         in2="SourceGraphic"
         operator="in"
         result="composite1"
         id="feComposite7363" />
      <feGaussianBlur
         in="composite1"
         stdDeviation="2.6"
         result="blur"
         id="feGaussianBlur7365" />
      <feOffset
         dx="-6.38378e-16"
         dy="-2.77556e-17"
         result="offset"
         id="feOffset7367" />
      <feComposite
         in="SourceGraphic"
         in2="offset"
         operator="over"
         result="composite2"
         id="feComposite7369" />
    </filter>
    <linearGradient
       inkscape:collect="always"
       xlink:href="#linearGradient7467"
       id="linearGradient7469"
       x1="95.160812"
       y1="147.44841"
       x2="95.111809"
       y2="112.61849"
       gradientUnits="userSpaceOnUse" />
    <linearGradient
       inkscape:collect="always"
       xlink:href="#linearGradient7475"
       id="linearGradient7479"
       gradientUnits="userSpaceOnUse"
       x1="95.160812"
       y1="147.44841"
       x2="95.111809"
       y2="112.61849" />
    <linearGradient
       inkscape:collect="always"
       xlink:href="#linearGradient9027"
       id="linearGradient9029"
       x1="65.922745"
       y1="206.10387"
       x2="66.195587"
       y2="157.93661"
       gradientUnits="userSpaceOnUse"
       gradientTransform="translate(-130.96875,-25.135417)" />
    <linearGradient
       inkscape:collect="always"
       xlink:href="#linearGradient9058"
       id="linearGradient9060"
       x1="60.212978"
       y1="245.07271"
       x2="59.069843"
       y2="112.07333"
       gradientUnits="userSpaceOnUse"
       gradientTransform="translate(6.026226,3.256287)" />
    <linearGradient
       inkscape:collect="always"
       xlink:href="#linearGradient9140"
       id="linearGradient9142"
       x1="67.786774"
       y1="209.47693"
       x2="65.097282"
       y2="118.28114"
       gradientUnits="userSpaceOnUse"
       gradientTransform="translate(3.58e-5,2.58e-5)" />
    <linearGradient
       inkscape:collect="always"
       xlink:href="#linearGradient9208"
       id="linearGradient9210"
       x1="65.901558"
       y1="203.18677"
       x2="66.461357"
       y2="160.83755"
       gradientUnits="userSpaceOnUse" />
    <linearGradient
       inkscape:collect="always"
       xlink:href="#linearGradient9222"
       id="linearGradient9226"
       x1="-95.652039"
       y1="241.79692"
       x2="-98.588303"
       y2="116.55416"
       gradientUnits="userSpaceOnUse" />
    <linearGradient
       inkscape:collect="always"
       xlink:href="#linearGradient9222"
       id="linearGradient9228"
       gradientUnits="userSpaceOnUse"
       x1="-104.64787"
       y1="242.32608"
       x2="-107.05497"
       y2="116.55416"
       gradientTransform="translate(167.7229,3.2132657)" />
    <linearGradient
       inkscape:collect="always"
       xlink:href="#linearGradient9280"
       id="linearGradient9284"
       x1="68.494026"
       y1="222.91667"
       x2="68.43853"
       y2="175.01651"
       gradientUnits="userSpaceOnUse"
       gradientTransform="translate(-133.30154,-42.457724)" />
    <linearGradient
       inkscape:collect="always"
       xlink:href="#linearGradient9305"
       id="linearGradient9307"
       x1="95.588554"
       y1="141.36458"
       x2="94.768517"
       y2="114.31133"
       gradientUnits="userSpaceOnUse" />
    <filter
       style="color-interpolation-filters:sRGB"
       inkscape:label="Drop Shadow"
       id="filter9385">
      <feFlood
         flood-opacity="0.498039"
         flood-color="rgb(0,0,0)"
         result="flood"
         id="feFlood9375" />
      <feComposite
         in="flood"
         in2="SourceGraphic"
         operator="in"
         result="composite1"
         id="feComposite9377" />
      <feGaussianBlur
         in="composite1"
         stdDeviation="7.8"
         result="blur"
         id="feGaussianBlur9379" />
      <feOffset
         dx="-6.38378e-16"
         dy="-2.77556e-17"
         result="offset"
         id="feOffset9381" />
      <feComposite
         in="SourceGraphic"
         in2="offset"
         operator="over"
         result="fbSourceGraphic"
         id="feComposite9383" />
      <feColorMatrix
         result="fbSourceGraphicAlpha"
         in="fbSourceGraphic"
         values="0 0 0 -1 0 0 0 0 -1 0 0 0 0 -1 0 0 0 0 1 0"
         id="feColorMatrix9387" />
      <feFlood
         id="feFlood9389"
         flood-opacity="0.498039"
         flood-color="rgb(0,0,0)"
         result="flood"
         in="fbSourceGraphic" />
      <feComposite
         in2="fbSourceGraphic"
         id="feComposite9391"
         in="flood"
         operator="in"
         result="composite1" />
      <feGaussianBlur
         id="feGaussianBlur9393"
         in="composite1"
         stdDeviation="2.1"
         result="blur" />
      <feOffset
         id="feOffset9395"
         dx="-6.38378e-16"
         dy="-2.77556e-17"
         result="offset" />
      <feComposite
         in2="offset"
         id="feComposite9397"
         in="fbSourceGraphic"
         operator="over"
         result="composite2" />
    </filter>
    <radialGradient
       inkscape:collect="always"
       xlink:href="#linearGradient9405"
       id="radialGradient9407"
       cx="366.4487"
       cy="256.29767"
       fx="366.4487"
       fy="256.29767"
       r="43.965839"
       gradientTransform="matrix(1,0,0,0.94684384,0,13.623801)"
       gradientUnits="userSpaceOnUse" />
    <radialGradient
       inkscape:collect="always"
       xlink:href="#linearGradient9405"
       id="radialGradient9413"
       gradientUnits="userSpaceOnUse"
       gradientTransform="matrix(1,0,0,0.94684384,0,13.623801)"
       cx="366.4487"
       cy="256.29767"
       fx="366.4487"
       fy="256.29767"
       r="43.965839" />
  </defs>
  <sodipodi:namedview
     id="base"
     pagecolor="#ffffff"
     bordercolor="#666666"
     borderopacity="1.0"
     inkscape:pageopacity="0.0"
     inkscape:pageshadow="2"
     inkscape:zoom="0.5"
     inkscape:cx="211.61707"
     inkscape:cy="261.68314"
     inkscape:document-units="mm"
     inkscape:current-layer="layer1"
     showgrid="false"
     inkscape:lockguides="true"
     showguides="true"
     inkscape:window-width="1293"
     inkscape:window-height="991"
     inkscape:window-x="617"
     inkscape:window-y="0"
     inkscape:window-maximized="0" />
  <metadata
     id="metadata5">
    <rdf:RDF>
      <cc:Work
         rdf:about="">
        <dc:format>image/svg+xml</dc:format>
        <dc:type
           rdf:resource="http://purl.org/dc/dcmitype/StillImage" />
        <dc:title />
      </cc:Work>
    </rdf:RDF>
  </metadata>
  <g
     inkscape:groupmode="layer"
     id="layer3"
     inkscape:label="Layer 0"
     transform="translate(-4.9828583,-33.453952)" />
  <g
     inkscape:label="Layer 1"
     inkscape:groupmode="layer"
     id="layer1"
     transform="translate(-4.9828583,-33.453952)">
    <circle
       style="fill:url(#linearGradient7469);fill-opacity:1;stroke:url(#linearGradient7479);stroke-width:1.70799994;stroke-miterlimit:4;stroke-dasharray:none;stroke-opacity:1"
       id="path7403"
       cy="129.98177"
       cx="95.084633"
       r="0" />
    <circle
       style="opacity:1;fill:url(#linearGradient9210);fill-opacity:1;stroke:none;stroke-width:1.9096123;stroke-miterlimit:4;stroke-dasharray:none;stroke-opacity:1"
       id="path7495-7"
       cy="181.75552"
       cx="66.4459"
       r="0" />
    <g
       id="g9433"
       transform="matrix(2.2517928,0,0,2.2517928,-575.80971,-401.08141)">
      <g
         transform="translate(-64.558333,-21.695833)"
         id="g9411">
        <rect
           style="opacity:1;fill:#05138b;fill-opacity:1;stroke:none;stroke-width:3.12292361;stroke-miterlimit:4;stroke-dasharray:none;stroke-opacity:1"
           id="rect9331"
           width="87.931679"
           height="83.257568"
           x="322.48285"
           y="214.6689" />
        <rect
           style="opacity:1;fill:url(#radialGradient9413);fill-opacity:1;stroke:none;stroke-width:3.12292361;stroke-miterlimit:4;stroke-dasharray:none;stroke-opacity:1"
           id="rect9331-2"
           width="87.931679"
           height="83.257568"
           x="322.48285"
           y="214.6689" />
      </g>
      <g
         style="filter:url(#filter9385)"
         transform="matrix(0.39366001,0,0,0.39366001,275.17149,161.79981)"
         id="g9329">
        <path
           style="opacity:1;fill:#0d4ced;fill-opacity:1;stroke:none;stroke-width:2.95141792;stroke-miterlimit:4;stroke-dasharray:none;stroke-opacity:1"
           d="m 65.097317,118.28116 c -10.319411,0.0249 -20.458551,2.58604 -29.569261,7.40265 l 10.680491,22.00898 -2.320269,1.73634 -18.680002,-16.98708 c -0.75837,0.61844 -1.50131,1.25462 -2.23035,1.90738 l 14.55311,21.02455 -2.027259,2.07068 -21.021971,-13.90251 c -0.62973,0.82667 -1.23984,1.66734 -1.82832,2.52388 l 20.122289,16.88993 -1.409218,2.53214 -24.8765212,-8.16953 c -0.5147601,1.22247 -0.9904701,2.46018 -1.42782,3.71244 l 23.5732402,10.75955 -0.68264,2.81636 -25.8020503,-1.21853 c -0.18617,1.37849 -0.32731,2.76187 -0.42271,4.14962 l 25.2733903,4.81108 0.007,2.89801 -24.9044205,4.8643 c 0.16057,1.23335 0.35655,2.46108 0.58911,3.68298 l 26.0314795,-0.40721 0.593252,2.83652 -23.0683605,9.66298 c 0.3570301,0.86052 0.7279201,1.71446 1.1224101,2.5585 l 23.9013794,-6.69882 1.29657,2.59209 -19.077389,14.63167 c 0.56022,0.80441 1.11363,1.61381 1.71049,2.39158 0.004,0.004 0.007,0.008 0.0109,0.0124 l 22.580021,-12.39821 1.85053,2.23036 -15.724621,19.14405 c 0.0487,0.0446 0.0963,0.0905 0.14521,0.13487 1.03833,0.85945 2.12672,1.65473 3.21737,2.44637 l 17.526062,-17.91829 2.41794,1.59732 -9.390642,22.63221 c 0.804032,0.39914 1.60437,0.80567 2.42466,1.17047 0.111501,0.0422 0.224171,0.0814 0.335902,0.12299 l 12.46849,-22.39036 2.75332,0.90485 -3.21324,25.15092 c 1.266809,0.24278 2.545519,0.41294 3.82457,0.57826 l 4.732528,-23.9789 2.898011,0.0124 4.61419,24.49722 c 0.292309,-0.0111 0.584819,-0.0163 0.876951,-0.0315 2.112701,-0.15024 4.216289,-0.40521 6.303489,-0.76532 h 5.29e-4 c 2.090269,-0.36041 4.160949,-0.82539 6.204789,-1.39269 2.03922,-0.56622 4.048665,-1.23437 6.021334,-2.00091 1.177801,-0.48531 2.341092,-1.00497 3.487643,-1.56011 l 0.01291,-0.007 0.01344,-0.006 c 22.554117,-10.37128 37.089807,-32.82727 37.123307,-57.64454 -5e-5,-35.1534 -28.46451,-63.61944 -63.617303,-63.62144 z"
           id="path8990-5"
           inkscape:connector-curvature="0"
           inkscape:export-xdpi="96"
           inkscape:export-ydpi="96" />
        <path
           style="color:#000000;font-style:normal;font-variant:normal;font-weight:normal;font-stretch:normal;font-size:medium;line-height:normal;font-family:sans-serif;font-variant-ligatures:normal;font-variant-position:normal;font-variant-caps:normal;font-variant-numeric:normal;font-variant-alternates:normal;font-feature-settings:normal;text-indent:0;text-align:start;text-decoration:none;text-decoration-line:none;text-decoration-style:solid;text-decoration-color:#000000;letter-spacing:normal;word-spacing:normal;text-transform:none;writing-mode:lr-tb;direction:ltr;text-orientation:mixed;dominant-baseline:auto;baseline-shift:baseline;text-anchor:start;white-space:normal;shape-padding:0;clip-rule:nonzero;display:inline;overflow:visible;visibility:visible;opacity:1;isolation:auto;mix-blend-mode:normal;color-interpolation:sRGB;color-interpolation-filters:linearRGB;solid-color:#000000;solid-opacity:1;vector-effect:none;fill:#f9e803;fill-opacity:1;fill-rule:nonzero;stroke:none;stroke-width:2.95141792;stroke-linecap:butt;stroke-linejoin:miter;stroke-miterlimit:4;stroke-dasharray:none;stroke-dashoffset:0;stroke-opacity:1;color-rendering:auto;image-rendering:auto;shape-rendering:auto;text-rendering:auto;enable-background:accumulate"
           d="m 65.094063,115.32935 c -11.286074,0.0266 -22.380315,2.9222 -32.239891,8.41448 l -1.218015,0.67903 8.576738,17.67437 -14.90245,-13.55163 -0.980819,0.76843 c -1.494876,1.17134 -2.939119,2.40625 -4.328418,3.70107 l -0.933793,0.87023 11.681975,16.87648 -16.944703,-11.20603 -0.841292,1.0573 c -1.253984,1.57577 -2.435858,3.20775 -3.5419027,4.89066 l -0.7208864,1.09657 16.3168331,13.69632 -20.1703446,-6.62388 -0.5426024,1.21646 c -0.9409885,2.11033 -1.7716135,4.26804 -2.4882202,6.46472 l -0.4087606,1.25316 19.0412148,8.69094 -20.84007137,-0.98392 -0.20412188,1.30845 c -0.36481006,2.33447 -0.60514395,4.68657 -0.71985265,7.0466 l -0.062528,1.28157 20.3103879,3.86643 -20.0881793,3.92328 0.1462443,1.34772 c 0.23721696,2.18391 0.58219584,4.35473 1.03404542,6.50451 l 0.2506307,1.19114 20.84523888,-0.32608 -18.7208208,7.84139 0.5208984,1.33997 c 0.6890392,1.77292 1.4540986,3.51549 2.2923666,5.22293 l 0.5405355,1.10226 18.9476803,-5.31027 -15.2311113,11.68146 0.7637773,1.14877 c 0.839149,1.26233 1.72094,2.49584 2.644283,3.69796 l 0.02532,0.0326 0.02687,0.031 c 0.282378,0.32797 0.568075,0.65326 0.856795,0.97565 l 0.781865,0.87333 17.937405,-9.84901 -12.616283,15.36031 0.989603,0.94567 c 0.40595,0.3878 0.816857,0.77033 1.232483,1.14774 l 0.02481,0.0227 0.02584,0.0212 c 1.426185,1.18138 2.901235,2.30264 4.42092,3.36104 l 1.024742,0.71417 13.959355,-14.27148 -7.509618,18.09863 1.196308,0.62581 c 1.258991,0.65858 2.538945,1.27694 3.837493,1.85363 l 0.03721,0.0165 0.03824,0.0145 c 0.536832,0.20374 1.076066,0.40037 1.617991,0.59015 l 1.172538,0.41083 9.962181,-17.88987 -2.575036,20.15588 1.250053,0.33073 c 0.386125,0.1023 0.772745,0.20128 1.160653,0.29662 l 0.03462,0.009 0.03514,0.007 c 1.860679,0.36317 3.735964,0.64646 5.620845,0.84956 l 1.344105,0.14521 3.785814,-19.18074 3.662826,19.44843 1.246953,-0.0233 c 0.74609,-0.0139 1.491895,-0.0401 2.237073,-0.0791 l 0.01395,-10e-4 0.01344,-5.2e-4 c 2.213825,-0.15711 4.418717,-0.42522 6.605797,-0.80254 2.187234,-0.37713 4.354489,-0.86315 6.493145,-1.45676 2.138598,-0.59382 4.246226,-1.29422 6.31486,-2.09858 l 0.01344,-0.006 0.01344,-0.005 c 1.235054,-0.50856 2.454394,-1.05466 3.656624,-1.63659 23.575731,-10.85075 38.788281,-34.35374 38.822421,-60.31498 v -0.001 -10e-4 c -6e-5,-36.74966 -29.82316,-66.57299 -66.57268,-66.5732 h -0.0016 z m 0.0036,2.95176 h 0.0036 c 35.152787,0.002 63.617257,28.46804 63.617307,63.62144 -0.0335,24.81727 -14.5692,47.27325 -37.123316,57.64454 l -0.01344,0.006 -0.01292,0.007 c -1.146553,0.55514 -2.309841,1.0748 -3.487642,1.56011 -1.97267,0.76654 -3.982119,1.43468 -6.02134,2.00091 -2.04384,0.56729 -4.114524,1.03227 -6.204788,1.39268 h -5.16e-4 c -2.087203,0.36011 -4.190791,0.61509 -6.303492,0.76533 -0.292134,0.0152 -0.584644,0.0204 -0.876948,0.0315 l -4.61419,-24.49721 -2.898013,-0.0124 -4.732528,23.9789 c -1.279054,-0.16532 -2.557759,-0.33548 -3.824573,-0.57826 l 3.21324,-25.15092 -2.75332,-0.90486 -12.46849,22.39037 c -0.111731,-0.0416 -0.224398,-0.0808 -0.335896,-0.12299 -0.820296,-0.3648 -1.620623,-0.77133 -2.424658,-1.17047 l 9.390642,-22.63221 -2.41794,-1.59732 -17.526063,17.91828 c -1.090647,-0.79164 -2.179043,-1.58692 -3.217374,-2.44636 -0.04888,-0.0444 -0.09647,-0.0903 -0.145211,-0.13487 l 15.724622,-19.14405 -1.850533,-2.23036 -22.580018,12.39821 c -0.0036,-0.004 -0.0073,-0.008 -0.01085,-0.0124 -0.596866,-0.77777 -1.150269,-1.58717 -1.710489,-2.39158 l 19.077389,-14.63167 -1.296562,-2.59209 -23.9013841,6.69882 C 6.9774847,207.60114 6.6065878,206.7472 6.249557,205.88668 L 29.317916,196.2237 28.72467,193.38718 2.6931848,193.79439 C 2.4606207,192.57249 2.264695,191.3447 2.1041095,190.11135 l 24.9044215,-4.8643 -0.0067,-2.89802 -25.2734091,-4.81107 c 0.09544,-1.38775 0.236529,-2.77112 0.4227132,-4.14962 l 25.8020429,1.21853 0.682646,-2.81636 -23.5732389,-10.75956 c 0.4373504,-1.25226 0.9130586,-2.48995 1.42782,-3.71243 l 24.8765169,8.16953 1.409216,-2.53215 -20.122285,-16.88992 c 0.588479,-0.85653 1.19859,-1.69721 1.828312,-2.52388 l 21.021973,13.90251 2.027266,-2.07067 -14.553117,-21.02456 c 0.729037,-0.65276 1.471985,-1.28894 2.230355,-1.90738 l 18.679996,16.98708 2.320271,-1.73633 -10.680483,-22.00899 c 9.110708,-4.81661 19.249843,-7.37772 29.569254,-7.40265 z"
           id="path7773-7"
           inkscape:connector-curvature="0"
           inkscape:export-xdpi="96"
           inkscape:export-ydpi="96" />
        <path
           style="opacity:1;fill:url(#linearGradient9142);fill-opacity:1;stroke:none;stroke-width:2.95141792;stroke-miterlimit:4;stroke-dasharray:none;stroke-opacity:1"
           d="m 65.09735,118.28119 c -10.31941,0.0249 -20.45855,2.58604 -29.56926,7.40265 l 10.68049,22.00899 -2.32027,1.73633 -18.68,-16.98708 c -0.75837,0.61844 -1.50131,1.25462 -2.23035,1.90738 l 14.55311,21.02456 -2.02726,2.07067 -21.02197,-13.90251 c -0.62973,0.82667 -1.23984,1.66735 -1.82832,2.52388 l 20.12229,16.88993 -1.40922,2.53214 -24.8765202,-8.16953 c -0.51476,1.22248 -0.99047,2.46018 -1.42782,3.71244 l 23.5732402,10.75955 -0.68264,2.81636 -25.8020502,-1.21853 c -0.18617,1.3785 -0.32731,2.76187 -0.42271,4.14962 l 25.2733902,4.81108 0.007,2.89801 -24.9044202,4.8643 c 0.16057,1.23335 0.35655,2.46108 0.58911,3.68298 L 28.72465,193.3872 29.3179,196.22372 6.2495398,205.8867 c 0.35703,0.86052 0.72792,1.71446 1.12241,2.5585 l 23.9013802,-6.69882 1.29657,2.59209 -19.07739,14.63167 c 0.56022,0.80441 1.11363,1.61381 1.71049,2.39158 0.004,0.004 0.007,0.008 0.0109,0.0124 l 22.58002,-12.39821 1.85053,2.23036 -15.72462,19.14405 c 0.0487,0.0446 0.0963,0.0905 0.14521,0.13487 1.03833,0.85945 2.12672,1.65473 3.21737,2.44637 l 17.52606,-17.91829 2.41794,1.59732 -9.39064,22.63221 c 0.80403,0.39914 1.60437,0.80567 2.42466,1.17047 0.1115,0.0422 0.22417,0.0814 0.3359,0.12299 l 12.46849,-22.39036 2.75332,0.90485 -3.21324,25.15092 c 1.26681,0.24278 2.54552,0.41294 3.82457,0.57826 l 4.73253,-23.9789 2.89801,0.0124 4.61419,24.49722 c 0.29231,-0.0111 0.58482,-0.0163 0.87695,-0.0315 2.1127,-0.15024 4.21629,-0.40521 6.30349,-0.76532 h 5.2e-4 c 2.09027,-0.36041 4.16095,-0.82539 6.20479,-1.39269 2.03922,-0.56622 4.04866,-1.23437 6.02133,-2.00091 1.1778,-0.48531 2.34109,-1.00497 3.48765,-1.56011 l 0.0129,-0.007 0.0134,-0.006 c 22.55411,-10.37128 37.08981,-32.82727 37.12331,-57.64454 -5e-5,-35.1534 -28.46452,-63.61944 -63.61731,-63.62144 z"
           id="path8990"
           inkscape:connector-curvature="0"
           inkscape:export-xdpi="96"
           inkscape:export-ydpi="96" />
        <path
           style="color:#000000;font-style:normal;font-variant:normal;font-weight:normal;font-stretch:normal;font-size:medium;line-height:normal;font-family:sans-serif;font-variant-ligatures:normal;font-variant-position:normal;font-variant-caps:normal;font-variant-numeric:normal;font-variant-alternates:normal;font-feature-settings:normal;text-indent:0;text-align:start;text-decoration:none;text-decoration-line:none;text-decoration-style:solid;text-decoration-color:#000000;letter-spacing:normal;word-spacing:normal;text-transform:none;writing-mode:lr-tb;direction:ltr;text-orientation:mixed;dominant-baseline:auto;baseline-shift:baseline;text-anchor:start;white-space:normal;shape-padding:0;clip-rule:nonzero;display:inline;overflow:visible;visibility:visible;opacity:1;isolation:auto;mix-blend-mode:normal;color-interpolation:sRGB;color-interpolation-filters:linearRGB;solid-color:#000000;solid-opacity:1;vector-effect:none;fill:url(#linearGradient9060);fill-opacity:1;fill-rule:nonzero;stroke:none;stroke-width:2.95141792;stroke-linecap:butt;stroke-linejoin:miter;stroke-miterlimit:4;stroke-dasharray:none;stroke-dashoffset:0;stroke-opacity:1;color-rendering:auto;image-rendering:auto;shape-rendering:auto;text-rendering:auto;enable-background:accumulate"
           d="m 65.09406,115.32934 c -11.286074,0.0266 -22.380316,2.9222 -32.239894,8.41448 l -1.21801,0.67903 8.576736,17.67437 -14.902446,-13.55163 -0.98082,0.76843 c -1.49488,1.17134 -2.93912,2.40625 -4.32842,3.70107 l -0.93379,0.87023 11.68197,16.87648 -16.9447,-11.20603 -0.84129,1.0573 c -1.25399,1.57577 -2.43586,3.20775 -3.54191,4.89066 l -0.72088,1.09657 16.31683,13.69632 -20.17034,-6.62388 -0.54261,1.21646 c -0.94099,2.11033 -1.77161,4.26804 -2.48822,6.46472 l -0.40876,1.25316 19.04122,8.69094 -20.84007,-0.98392 -0.20413,1.30845 c -0.36481,2.33447 -0.60514,4.68657 -0.71985,7.0466 l -0.0625,1.28157 20.31039,3.86643 -20.08818,3.92328 0.14625,1.34772 c 0.23721,2.18391 0.58219,4.35473 1.03404,6.50451 l 0.25063,1.19114 20.84524,-0.32608 -18.72082,7.84139 0.5209,1.33997 c 0.68904,1.77292 1.4541,3.51549 2.29237,5.22293 l 0.54053,1.10226 18.94768,-5.31027 -15.23111,11.68146 0.76378,1.14877 c 0.83915,1.26233 1.72094,2.49584 2.64428,3.69796 l 0.0253,0.0326 0.0269,0.031 c 0.28238,0.32797 0.56808,0.65326 0.8568,0.97565 l 0.78186,0.87333 17.9374,-9.84901 -12.61628,15.36031 0.9896,0.94567 c 0.40595,0.3878 0.81686,0.77033 1.23249,1.14774 l 0.0248,0.0227 0.0258,0.0212 c 1.42618,1.18139 2.90123,2.30265 4.42092,3.36105 l 1.02474,0.71417 13.959357,-14.27148 -7.509617,18.09863 1.19631,0.62581 c 1.25899,0.65858 2.53894,1.27694 3.83749,1.85362 l 0.03721,0.0165 0.03824,0.0145 c 0.536831,0.20374 1.076065,0.40037 1.61799,0.59015 l 1.172538,0.41083 9.962182,-17.88987 -2.575036,20.15588 1.250053,0.33073 c 0.386125,0.1023 0.772745,0.20129 1.160653,0.29663 l 0.03462,0.009 0.03514,0.007 c 1.86068,0.36317 3.735964,0.64646 5.620845,0.84956 l 1.344105,0.14521 3.785814,-19.18074 3.662826,19.44843 1.246955,-0.0233 c 0.746088,-0.0139 1.491892,-0.0401 2.237073,-0.0791 l 0.01394,-10e-4 0.01344,-5.3e-4 c 2.213825,-0.1571 4.418717,-0.42521 6.605797,-0.80253 2.187233,-0.37713 4.354488,-0.86315 6.493145,-1.45677 2.138598,-0.59381 4.246226,-1.29422 6.31486,-2.09858 l 0.01344,-0.006 0.01344,-0.005 c 1.235054,-0.50856 2.454394,-1.05466 3.656624,-1.63659 23.57573,-10.85075 38.78829,-34.35375 38.82242,-60.31499 v -10e-4 -0.001 c -5e-5,-36.74945 -29.82315,-66.57278 -66.572672,-66.57299 h -0.0016 z m 0.0036,2.95176 h 0.0036 c 35.15279,0.002 63.61726,28.46804 63.61731,63.62144 -0.0335,24.81727 -14.5692,47.27325 -37.123316,57.64454 l -0.01344,0.006 -0.01291,0.007 c -1.146553,0.55514 -2.309841,1.0748 -3.487642,1.56011 -1.97267,0.76654 -3.982119,1.43468 -6.02134,2.00091 -2.04384,0.56729 -4.114525,1.03227 -6.204789,1.39268 h -5.29e-4 c -2.087203,0.36011 -4.190791,0.61509 -6.303491,0.76533 -0.292135,0.0152 -0.584645,0.0204 -0.876949,0.0315 l -4.61419,-24.49721 -2.898013,-0.0124 -4.732528,23.9789 c -1.279054,-0.16532 -2.557759,-0.33548 -3.824573,-0.57826 l 3.21324,-25.15092 -2.75332,-0.90486 -12.46849,22.39037 c -0.111731,-0.0416 -0.224398,-0.0808 -0.335896,-0.12299 -0.820296,-0.3648 -1.620628,-0.77133 -2.424658,-1.17047 l 9.390642,-22.63221 -2.41794,-1.59732 -17.526062,17.91828 c -1.09065,-0.79164 -2.17904,-1.58692 -3.21738,-2.44636 -0.0489,-0.0444 -0.0965,-0.0903 -0.14521,-0.13487 l 15.72462,-19.14404 -1.85053,-2.23036 -22.58002,12.39821 c -0.004,-0.004 -0.007,-0.008 -0.0109,-0.0124 -0.59687,-0.77777 -1.15027,-1.58717 -1.71049,-2.39158 l 19.07739,-14.63168 -1.29657,-2.59209 -23.90138,6.69882 c -0.39448,-0.84404 -0.76538,-1.69798 -1.12241,-2.5585 l 23.06836,-9.66298 -0.59325,-2.83652 -26.03148,0.40721 c -0.23257,-1.2219 -0.42849,-2.44969 -0.58908,-3.68304 l 24.90442,-4.8643 -0.007,-2.89802 -25.27341,-4.81107 c 0.0954,-1.38775 0.23653,-2.77112 0.42272,-4.14962 l 25.80204,1.21853 0.68265,-2.81636 -23.57324,-10.75956 c 0.43735,-1.25226 0.91306,-2.48995 1.42782,-3.71243 l 24.87652,8.16953 1.40922,-2.53215 -20.12229,-16.88992 c 0.58848,-0.85653 1.19859,-1.69721 1.82831,-2.52388 l 21.02198,13.90251 2.02726,-2.07067 -14.55312,-21.02456 c 0.72904,-0.65276 1.47199,-1.28894 2.23036,-1.90738 l 18.679996,16.98708 2.320271,-1.73633 -10.680487,-22.00899 c 9.110712,-4.81661 19.249847,-7.37772 29.569258,-7.40265 z"
           id="path7773-7-4"
           inkscape:connector-curvature="0"
           inkscape:export-xdpi="96"
           inkscape:export-ydpi="96" />
        <g
           id="g9173"
           transform="translate(199.06235,19.45724)">
          <path
             inkscape:connector-curvature="0"
             id="path8103-5"
             d="m -148.43875,100.44554 c -5.23889,1.41884 -10.36968,3.1111 -15.0952,5.78104 l 10.68048,22.00899 -18.92752,-17.06666 c -1.46002,1.14905 -2.94667,2.45361 -4.3031,3.72329 l 14.5216,21.03696 -21.63486,-14.20275 c -1.22207,1.54938 -2.13483,3.22845 -3.21117,4.88239 l 19.65255,16.95039 -24.8605,-8.46305 c -0.91764,2.06861 -1.68596,4.32475 -2.38332,6.47764 l 23.57324,10.75903 -26.41027,-1.33429 c -0.35586,2.29086 -0.38806,6.74573 -0.49765,9.06147 l 24.71787,2.97914 -24.6171,4.72013 c 0.23772,2.14502 0.29,4.80347 0.73949,6.9143 l 25.00364,-0.4594 -22.75417,9.57771 c 0.67245,1.7462 1.94594,4.12302 2.76624,5.80482 l 23.68951,-7.30757 -20.29281,15.24351 c 1.09089,1.57486 3.15098,3.5075 4.37647,4.98006 l 21.60282,-12.55272 -15.77526,19.61999 c 1.76816,1.57254 4.76384,3.58237 6.69261,4.95319 l 16.51165,-18.11931 -9.43405,22.45238 c 1.7465,0.87798 4.32387,2.10938 6.14226,2.8267 l 11.96774,-23.00428 c -1.57849,8.84229 -2.32618,17.54729 -3.54293,26.23457 2.19252,0.49369 5.23441,0.92931 7.46621,1.19372 l 4.1739,-24.77316 c 1.23893,8.6415 2.94378,16.09703 4.5589,24.73854 7.67408,-2.6e-4 17.5083,-1.97334 25.86095,-5.98671 13.246947,-5.98076 24.395977,-16.8904 30.908187,-30.34595 h -35.345127 c -5.49515,3.83594 -12.03218,5.89918 -18.73374,5.91281 -18.14011,6e-5 -32.84558,-14.70543 -32.84553,-32.84554 2.4e-4,-18.13991 14.70562,-32.84507 32.84553,-32.84502 4.15124,0.01 8.26302,0.80604 12.11761,2.34714 z"
             style="opacity:1;fill:#fbeb02;fill-opacity:1;stroke:none;stroke-width:2.95142388;stroke-miterlimit:4;stroke-dasharray:none;stroke-opacity:1" />
          <path
             sodipodi:nodetypes="cccsscccc"
             inkscape:connector-curvature="0"
             id="path9169"
             d="m -97.415736,189.85859 29.375303,5.1e-4 3.703288,3.04089 c 3.357898,-0.0602 6.920479,-0.7265 8.806731,0.8011 2.072069,1.67809 1.999775,3.23282 1.530001,5.52498 -0.770148,3.75777 -3.150945,4.55582 -3.150945,4.55582 0.404766,-1.6804 0.09359,-2.64918 -0.299213,-4.62897 l -45.047379,-0.278 z"
             style="fill:#fbeb02;fill-opacity:1;stroke:none;stroke-width:0.26458332px;stroke-linecap:butt;stroke-linejoin:miter;stroke-opacity:1" />
        </g>
        <g
           id="g9216"
           style="fill:url(#linearGradient9226);fill-opacity:1">
          <path
             style="opacity:1;fill:url(#linearGradient9228);fill-opacity:1;stroke:none;stroke-width:2.95142388;stroke-miterlimit:4;stroke-dasharray:none;stroke-opacity:1"
             d="m 50.623592,119.90278 c -5.23889,1.41884 -10.369682,3.11111 -15.095201,5.78104 l 10.680485,22.009 -18.927527,-17.06666 c -1.460021,1.14905 -2.946667,2.45361 -4.303098,3.72328 L 37.499846,155.3864 15.864991,141.18365 c -1.22207,1.54939 -2.134833,3.22845 -3.211173,4.88239 l 19.652546,16.95039 -24.8604962,-8.46305 c -0.9176411,2.06861 -1.6859594,4.32475 -2.383319,6.47764 L 28.635788,171.79005 2.2255144,170.45577 c -0.355862,2.29086 -0.3880538,6.74572 -0.4976442,9.06146 L 26.44574,182.49638 1.8286394,187.2165 c 0.2377202,2.14502 0.2899992,4.80348 0.7394892,6.91431 l 25.0036404,-0.4594 -22.7541661,9.57771 c 0.6724517,1.7462 1.9459389,4.12301 2.7662398,5.80481 l 23.6895113,-7.30756 -20.29282,15.24351 c 1.090891,1.57486 3.150987,3.5075 4.376479,4.98006 L 36.959826,209.41722 21.184564,229.0372 c 1.76816,1.57254 4.763844,3.58237 6.692614,4.95319 l 16.511653,-18.11931 -9.434049,22.45238 c 1.746499,0.87798 4.323871,2.10938 6.14226,2.8267 l 11.967744,-23.00428 c -1.578488,8.84229 -2.326185,17.54729 -3.542935,26.23458 2.19252,0.49368 5.234411,0.92931 7.466211,1.19372 l 4.173905,-24.77316 c 1.23893,8.64149 2.943775,16.09703 4.558895,24.73854 7.674076,-2.6e-4 17.508305,-1.97335 25.860954,-5.98672 10.053764,-4.5391 18.896724,-11.91936 25.423774,-21.09483 l 24.60625,0.15193 c 0.3928,1.97979 0.70397,2.94877 0.2992,4.62917 0,0 2.38057,-0.79802 3.15071,-4.55579 0.46978,-2.29216 0.54245,-3.84716 -1.52962,-5.52525 -1.88625,-1.5276 -5.4488,-0.86118 -8.80669,-0.80098 l -3.70366,-3.04116 h -8.58603 c 0.0178,-0.0365 0.0366,-0.0725 0.0543,-0.10904 H 87.144876 c -5.49515,3.83594 -12.032179,5.89919 -18.733738,5.91282 -18.140109,6e-5 -32.845592,-14.70543 -32.845542,-32.84554 2.41e-4,-18.13991 14.705634,-32.84508 32.845542,-32.84503 4.151238,0.01 8.263016,0.80605 12.117607,2.34715 z"
             id="path8103-5-9"
             inkscape:connector-curvature="0" />
        </g>
        <g
           id="g9313"
           transform="translate(132.45878,25.818236)">
          <circle
             r="23.845556"
             cy="156.64685"
             cx="-64.773987"
             id="path7986"
             style="opacity:1;fill:#ffed00;fill-opacity:0.98039216;stroke:none;stroke-width:5.43544149;stroke-miterlimit:4;stroke-dasharray:none;stroke-opacity:1" />
          <circle
             r="23.845556"
             cy="156.64644"
             cx="-64.774445"
             id="path7986-5"
             style="opacity:1;fill:url(#linearGradient9284);fill-opacity:1;stroke:none;stroke-width:5.43544149;stroke-miterlimit:4;stroke-dasharray:none;stroke-opacity:1" />
          <path
             transform="matrix(1.1176531,0.0294095,-0.0294095,1.1176531,-166.92959,6.7131426)"
             inkscape:transform-center-y="-1.3091927"
             inkscape:transform-center-x="0.11945541"
             d="m 104.92045,142.97376 -9.568551,-6.43743 -9.217654,6.93055 3.165521,-11.08951 -9.439758,-6.62485 11.524947,-0.41626 3.383563,-11.02493 3.95729,10.83224 11.530912,-0.18893 -9.07921,7.11095 z"
             inkscape:randomized="0"
             inkscape:rounded="0"
             inkscape:flatsided="false"
             sodipodi:arg2="1.5445535"
             sodipodi:arg1="0.91623494"
             sodipodi:r2="6.2466526"
             sodipodi:r1="15.986003"
             sodipodi:cy="130.29182"
             sodipodi:cx="95.187988"
             sodipodi:sides="5"
             id="path7407"
             style="fill:url(#linearGradient9307);fill-opacity:1;stroke:none;stroke-width:1.70799994;stroke-miterlimit:4;stroke-dasharray:none;stroke-opacity:1"
             sodipodi:type="star" />
          <path
             inkscape:connector-curvature="0"
             id="path7495-7-3-4"
             d="m -64.773161,132.80119 a 23.845677,23.845677 0 0 0 -23.846015,23.84602 23.845677,23.845677 0 0 0 23.846015,23.84544 23.845677,23.845677 0 0 0 23.845446,-23.84544 23.845677,23.845677 0 0 0 -23.845446,-23.84602 z m 0.26577,2.90095 a 20.917261,20.917261 0 0 1 2.08804,0.10454 20.917261,20.917261 0 0 1 2.067815,0.31257 20.917261,20.917261 0 0 1 2.025643,0.51709 20.917261,20.917261 0 0 1 1.963814,0.717 20.917261,20.917261 0 0 1 1.882925,0.9094 20.917261,20.917261 0 0 1 1.782402,1.09313 20.917261,20.917261 0 0 1 1.664538,1.2653 20.917261,20.917261 0 0 1 1.529915,1.42535 20.917261,20.917261 0 0 1 1.379694,1.57093 20.917261,20.917261 0 0 1 1.216193,1.70036 20.917261,20.917261 0 0 1 1.040549,1.8136 20.917261,20.917261 0 0 1 0.853936,1.90893 20.917261,20.917261 0 0 1 0.65923,1.98404 20.917261,20.917261 0 0 1 0.458162,2.04008 20.917261,20.917261 0 0 1 0.251906,2.07532 20.917261,20.917261 0 0 1 0.05255,1.47966 20.917261,20.917261 0 0 1 -0.104536,2.08861 20.917261,20.917261 0 0 1 -0.312571,2.06723 20.917261,20.917261 0 0 1 -0.517093,2.02565 20.917261,20.917261 0 0 1 -0.716999,1.96439 20.917261,20.917261 0 0 1 -0.909403,1.88236 20.917261,20.917261 0 0 1 -1.09313,1.78297 20.917261,20.917261 0 0 1 -1.265297,1.66454 20.917261,20.917261 0 0 1 -1.425344,1.52933 20.917261,20.917261 0 0 1 -1.570366,1.38028 20.917261,20.917261 0 0 1 -1.70093,1.21619 20.917261,20.917261 0 0 1 -1.813595,1.04055 20.917261,20.917261 0 0 1 -1.90836,0.85393 20.917261,20.917261 0 0 1 -1.984611,0.65923 20.917261,20.917261 0 0 1 -2.040087,0.4576 20.917261,20.917261 0 0 1 -2.075317,0.25247 20.917261,20.917261 0 0 1 -1.479659,0.052 20.917261,20.917261 0 0 1 -2.088029,-0.10454 20.917261,20.917261 0 0 1 -2.067815,-0.31199 20.917261,20.917261 0 0 1 -2.025643,-0.51767 20.917261,20.917261 0 0 1 -1.963815,-0.71701 20.917261,20.917261 0 0 1 -1.882936,-0.90939 20.917261,20.917261 0 0 1 -1.78239,-1.09255 20.917261,20.917261 0 0 1 -1.664538,-1.26531 20.917261,20.917261 0 0 1 -1.529915,-1.42534 20.917261,20.917261 0 0 1 -1.380276,-1.57094 20.917261,20.917261 0 0 1 -1.216193,-1.70093 20.917261,20.917261 0 0 1 -1.039978,-1.81359 20.917261,20.917261 0 0 1 -0.853937,-1.90836 20.917261,20.917261 0 0 1 -0.6598,-1.98404 20.917261,20.917261 0 0 1 -0.457591,-2.04008 20.917261,20.917261 0 0 1 -0.251906,-2.07591 20.917261,20.917261 0 0 1 -0.05255,-1.47965 20.917261,20.917261 0 0 1 0.104537,-2.08804 20.917261,20.917261 0 0 1 0.31257,-2.06723 20.917261,20.917261 0 0 1 0.517105,-2.02621 20.917261,20.917261 0 0 1 0.716999,-1.96382 20.917261,20.917261 0 0 1 0.909403,-1.88294 20.917261,20.917261 0 0 1 1.09313,-1.78239 20.917261,20.917261 0 0 1 1.265297,-1.66453 20.917261,20.917261 0 0 1 1.424763,-1.52992 20.917261,20.917261 0 0 1 1.570935,-1.3797 20.917261,20.917261 0 0 1 1.700942,-1.2162 20.917261,20.917261 0 0 1 1.813595,-1.04055 20.917261,20.917261 0 0 1 1.908349,-0.85393 20.917261,20.917261 0 0 1 1.98404,-0.65922 20.917261,20.917261 0 0 1 2.040088,-0.45817 20.917261,20.917261 0 0 1 2.075898,-0.25191 20.917261,20.917261 0 0 1 1.479648,-0.0525 z"
             style="opacity:1;fill:url(#linearGradient9029);fill-opacity:1;stroke:none;stroke-width:2.17695785;stroke-miterlimit:4;stroke-dasharray:none;stroke-opacity:1" />
        </g>
      </g>
    </g>
  </g>
</svg>
